<?xml version="1.0" standalone="no"?>
<!DOCTYPE svg PUBLIC "-//W3C//DTD SVG 20010904//EN"
 "http://www.w3.org/TR/2001/REC-SVG-20010904/DTD/svg10.dtd">
<svg version="1.0" xmlns="http://www.w3.org/2000/svg"
 width="226.000000pt" height="226.000000pt" viewBox="0 0 226.000000 226.000000"
 preserveAspectRatio="xMidYMid meet">
<metadata>
Created by potrace 1.14, written by Peter Selinger 2001-2017
</metadata>
<g transform="translate(0.000000,226.000000) scale(0.100000,-0.100000)"
fill="#000000" stroke="none">
<path d="M0 1125 l0 -1085 815 0 815 0 0 40 0 40 -125 0 -125 0 0 75 0 75 325
0 325 0 0 280 0 280 -40 0 c-25 0 -40 -5 -40 -12 -1 -7 0 -115 0 -240 l1 -228
-416 0 -415 0 0 -40 0 -40 90 0 90 0 0 -75 0 -75 -610 0 -610 0 0 190 0 190
175 0 175 0 0 40 0 40 -175 0 -175 0 0 355 0 355 110 0 110 0 0 -290 0 -290
165 0 165 0 0 -180 0 -180 -180 0 -180 0 0 -40 0 -40 330 0 330 0 0 40 0 40
-105 0 -105 0 0 180 0 180 245 0 245 0 0 -65 0 -65 -165 0 -165 0 0 -40 0 -40
455 0 455 0 0 300 0 300 -45 0 -45 0 0 -260 0 -260 -202 0 -203 0 0 107 0 108
-455 5 -455 5 0 243 0 242 168 0 167 0 0 45 0 45 -320 0 -320 0 0 245 0 245
130 0 130 0 0 40 0 40 -130 0 -130 0 0 90 0 90 160 0 160 0 0 40 0 40 -200 0
-200 0 0 -1085z"/>
<path d="M650 2170 l0 -40 85 0 85 0 0 -90 0 -90 -135 0 -135 0 0 -135 0 -135
-125 0 -125 0 0 -45 0 -45 320 0 321 0 -1 -167 c0 -93 -1 -174 0 -180 0 -8 15
-13 40 -13 l40 0 0 180 0 180 95 0 95 0 0 -260 0 -260 -310 0 -310 0 0 -40 0
-40 356 0 356 0 -4 80 -3 80 87 0 88 0 0 -190 0 -190 40 0 c25 0 40 5 40 13 1
6 0 121 0 255 l-1 242 201 0 202 0 -2 -27 c-4 -50 -2 -53 40 -53 l40 0 0 406
0 405 -41 -3 -41 -3 2 -322 1 -323 -241 0 -240 0 0 -65 0 -65 -87 0 -88 0 0
180 0 180 93 0 92 0 0 180 0 180 -40 0 -40 0 0 -135 0 -135 -385 0 -385 0 0
95 0 95 280 0 280 0 0 40 0 40 -142 0 -143 0 0 90 0 90 398 0 397 0 0 -275 0
-275 45 0 46 0 -3 275 -3 275 198 0 197 0 0 -535 0 -535 -125 0 -125 0 0 -45
0 -45 125 0 125 0 0 -425 0 -425 -160 0 -160 0 0 -40 0 -40 200 0 200 0 0
1085 0 1085 -805 0 -805 0 0 -40z"/>
</g>
</svg>
